<?xml version="1.0" encoding="utf-8"?>
<!-- Generator: Adobe Illustrator 21.1.0, SVG Export Plug-In . SVG Version: 6.00 Build 0)  -->
<svg version="1.1" id="Layer_1" xmlns="http://www.w3.org/2000/svg" xmlns:xlink="http://www.w3.org/1999/xlink" x="0px" y="0px"
	 viewBox="0 0 512 512" style="enable-background:new 0 0 512 512;" xml:space="preserve">
<style type="text/css">
	.st0{fill:#FFFFFF;}
</style>
<g>
	<circle class="st0" cx="394.9" cy="394.9" r="8.2"/>
	<circle class="st0" cx="394.9" cy="441.1" r="8.2"/>
	<path class="st0" d="M284.9,177l72.2-72.2c1.5-1.5,2.4-3.6,2.4-5.8V51.7c0-19.5,15.9-35.4,35.4-35.4s35.4,15.9,35.4,35.4v21.8
		c0,4.5,3.7,8.2,8.2,8.2h21.8c19.5,0,35.4,15.9,35.4,35.4s-15.9,35.4-35.4,35.4h-47.3c-2.2,0-4.2,0.9-5.8,2.4L335,227.1
		c-3.2,3.2-3.2,8.4,0,11.6c1.6,1.6,3.7,2.4,5.8,2.4c2.1,0,4.2-0.8,5.8-2.4l69.8-69.8h43.9c28.5,0,51.7-23.2,51.7-51.7
		s-23.2-51.7-51.7-51.7h-13.6V51.7c0-28.5-23.2-51.7-51.7-51.7c-28.5,0-51.7,23.2-51.7,51.7v43.9l-69.8,69.8
		c-3.2,3.2-3.2,8.4,0,11.6C276.5,180.2,281.7,180.2,284.9,177z"/>
	<path class="st0" d="M227.1,335l-72.2,72.2c-1.5,1.5-2.4,3.6-2.4,5.8v47.3c0,19.5-15.9,35.4-35.4,35.4s-35.4-15.9-35.4-35.4v-21.8
		c0-4.5-3.7-8.2-8.2-8.2H51.7c-19.5,0-35.4-15.9-35.4-35.4s15.9-35.4,35.4-35.4h47.3c2.2,0,4.2-0.9,5.8-2.4l72.2-72.2
		c3.2-3.2,3.2-8.4,0-11.6c-3.2-3.2-8.4-3.2-11.6,0l-69.8,69.8H51.7C23.2,343.1,0,366.4,0,394.9c0,28.5,23.2,51.7,51.7,51.7h13.6
		v13.6c0,28.5,23.2,51.7,51.7,51.7s51.7-23.2,51.7-51.7v-43.9l69.8-69.8c3.2-3.2,3.2-8.4,0-11.6C235.5,331.8,230.3,331.8,227.1,335z
		"/>
	<path class="st0" d="M460.3,343.1h-43.9L168.9,95.7V51.7c0-28.5-23.2-51.7-51.7-51.7S65.4,23.2,65.4,51.7v13.6H51.7
		C23.2,65.4,0,88.6,0,117.1s23.2,51.7,51.7,51.7h43.9l247.5,247.5v43.9c0,28.5,23.2,51.7,51.7,51.7c28.5,0,51.7-23.2,51.7-51.7
		v-13.6h13.6c28.5,0,51.7-23.2,51.7-51.7C512,366.4,488.8,343.1,460.3,343.1z M460.3,430.3h-21.8c-4.5,0-8.2,3.7-8.2,8.2v21.8
		c0,19.5-15.9,35.4-35.4,35.4s-35.4-15.9-35.4-35.4v-47.3c0-2.2-0.9-4.2-2.4-5.8L104.8,154.9c-1.5-1.5-3.6-2.4-5.8-2.4H51.7
		c-19.5,0-35.4-15.9-35.4-35.4s15.9-35.4,35.4-35.4h21.8c4.5,0,8.2-3.7,8.2-8.2V51.7c0-19.5,15.9-35.4,35.4-35.4
		s35.4,15.9,35.4,35.4v47.3c0,2.2,0.9,4.2,2.4,5.8l252.3,252.3c1.5,1.5,3.6,2.4,5.8,2.4h47.3c19.5,0,35.4,15.9,35.4,35.4
		C495.7,414.4,479.8,430.3,460.3,430.3z"/>
</g>
</svg>
